<?xml version="1.0" encoding="utf-8"?>
<svg version="1.1" xmlns:xlink="http://www.w3.org/1999/xlink" width="26px" height="36px" xmlns="http://www.w3.org/2000/svg">
  <defs>
    <mask fill="white" id="clip45">
      <path d="M 26 14.4300000000001  C 26 21.6857333333335  14.3333333333334 35.3599999999999  13.6666666666667 35.3599999999999  C 13 35.3599999999999  0 21.6857333333335  0 14.4300000000001  C 0 7.17426666666688  5.72000000000014 0  13 0  C 20.2799999999999 0  26 7.17426666666688  26 14.4300000000001  Z M 9.10000000000002 13.0962962962963  C 9.10000000000002 15.296474074074  10.816 17.0251851851851  13 17.0251851851851  C 15.184 17.0251851851851  16.9 15.296474074074  16.9 13.0962962962963  C 16.9 10.8961185185185  15.184 9.16740740740738  13 9.16740740740738  C 10.816 9.16740740740738  9.10000000000002 10.8961185185185  9.10000000000002 13.0962962962963  Z " fill-rule="evenodd" />
    </mask>
  </defs>
  <g transform="matrix(1 0 0 1 -339 -281 )">
    <path d="M 26 14.4300000000001  C 26 21.6857333333335  14.3333333333334 35.3599999999999  13.6666666666667 35.3599999999999  C 13 35.3599999999999  0 21.6857333333335  0 14.4300000000001  C 0 7.17426666666688  5.72000000000014 0  13 0  C 20.2799999999999 0  26 7.17426666666688  26 14.4300000000001  Z M 9.10000000000002 13.0962962962963  C 9.10000000000002 15.296474074074  10.816 17.0251851851851  13 17.0251851851851  C 15.184 17.0251851851851  16.9 15.296474074074  16.9 13.0962962962963  C 16.9 10.8961185185185  15.184 9.16740740740738  13 9.16740740740738  C 10.816 9.16740740740738  9.10000000000002 10.8961185185185  9.10000000000002 13.0962962962963  Z " fill-rule="nonzero" fill="#0089d4" stroke="none" transform="matrix(1 0 0 1 339 281 )" />
    <path d="M 26 14.4300000000001  C 26 21.6857333333335  14.3333333333334 35.3599999999999  13.6666666666667 35.3599999999999  C 13 35.3599999999999  0 21.6857333333335  0 14.4300000000001  C 0 7.17426666666688  5.72000000000014 0  13 0  C 20.2799999999999 0  26 7.17426666666688  26 14.4300000000001  Z " stroke-width="4" stroke="#ffffff" fill="none" transform="matrix(1 0 0 1 339 281 )" mask="url(#clip45)" />
    <path d="M 9.10000000000002 13.0962962962963  C 9.10000000000002 15.296474074074  10.816 17.0251851851851  13 17.0251851851851  C 15.184 17.0251851851851  16.9 15.296474074074  16.9 13.0962962962963  C 16.9 10.8961185185185  15.184 9.16740740740738  13 9.16740740740738  C 10.816 9.16740740740738  9.10000000000002 10.8961185185185  9.10000000000002 13.0962962962963  Z " stroke-width="4" stroke="#ffffff" fill="none" transform="matrix(1 0 0 1 339 281 )" mask="url(#clip45)" />
  </g>
</svg>