<?xml version="1.0" encoding="utf-8"?>
<svg version="1.1" xmlns:xlink="http://www.w3.org/1999/xlink" width="16px" height="16px" xmlns="http://www.w3.org/2000/svg">
  <g transform="matrix(1 0 0 1 -5 -5 )">
    <path d="M 13 6  C 16.92 6  20 9.08  20 13  C 20 16.92  16.92 20  13 20  C 9.08 20  6 16.92  6 13  C 6 9.08  9.08 6  13 6  Z " fill-rule="nonzero" fill="#ffffff" stroke="none" />
    <path d="M 13 6  C 16.92 6  20 9.08  20 13  C 20 16.92  16.92 20  13 20  C 9.08 20  6 16.92  6 13  C 6 9.08  9.08 6  13 6  Z " stroke-width="2" stroke="#bfbfbf" fill="none" />
  </g>
</svg>