<?xml version="1.0" encoding="utf-8"?>
<svg version="1.1" xmlns:xlink="http://www.w3.org/1999/xlink" width="16px" height="16px" xmlns="http://www.w3.org/2000/svg">
  <g transform="matrix(1 0 0 1 -35 -5 )">
    <path d="M 43 6  C 46.92 6  50 9.08  50 13  C 50 16.92  46.92 20  43 20  C 39.08 20  36 16.92  36 13  C 36 9.08  39.08 6  43 6  Z " fill-rule="nonzero" fill="#ffffff" stroke="none" fill-opacity="0" />
    <path d="M 43 6  C 46.92 6  50 9.08  50 13  C 50 16.92  46.92 20  43 20  C 39.08 20  36 16.92  36 13  C 36 9.08  39.08 6  43 6  Z " stroke-width="2" stroke="#ffffff" fill="none" />
  </g>
</svg>