<?xml version="1.0" encoding="utf-8"?>
<svg version="1.1" xmlns:xlink="http://www.w3.org/1999/xlink" width="41px" height="41px" xmlns="http://www.w3.org/2000/svg">
  <g transform="matrix(1 0 0 1 -349 -229 )">
    <path d="M 370.000006089795 229.506128108664  C 380.814657100316 229.771491685257  389.5 238.621460578651  389.5 249.5  C 389.5 260.545694996616  380.545694996616 269.5  369.5 269.5  C 358.454305003384 269.5  349.5 260.545694996616  349.5 249.5  C 349.5 248.402961542664  349.590261550002 247.30806667286  349.769733513277 246.226380462558  L 369.405853674177 249.991056482835  A 0.5 0.5 0 0 0 370 249.5 L 370.000006085312 229.506128108554  Z " fill-rule="nonzero" fill="#5899da" stroke="none" />
    <path d="M 370.000006089795 229.506128108664  C 380.814657100316 229.771491685257  389.5 238.621460578651  389.5 249.5  C 389.5 260.545694996616  380.545694996616 269.5  369.5 269.5  C 358.454305003384 269.5  349.5 260.545694996616  349.5 249.5  C 349.5 248.402961542664  349.590261550002 247.30806667286  349.769733513277 246.226380462558  L 369.405853674177 249.991056482835  A 0.5 0.5 0 0 0 370 249.5 L 370.000006085312 229.506128108554  Z " stroke-width="1" stroke="#ffffff" fill="none" />
  </g>
</svg>