<?xml version="1.0" encoding="utf-8"?>
<svg version="1.1" xmlns:xlink="http://www.w3.org/1999/xlink" width="41px" height="41px" xmlns="http://www.w3.org/2000/svg">
  <g transform="matrix(1 0 0 1 -258 -247 )">
    <path d="M 279.000006089795 247.506128108664  C 289.814657100316 247.771491685257  298.5 256.621460578651  298.5 267.5  C 298.5 278.545694996616  289.545694996616 287.5  278.5 287.5  C 267.454305003384 287.5  258.5 278.545694996616  258.5 267.5  C 258.5 264.179485180431  259.326702601614 260.913920261391  260.902006985742 257.99680609627  L 278.251495679123 267.933872795305  A 0.5 0.5 0 0 0 279 267.5 L 279.000006085312 247.506128108554  Z " fill-rule="nonzero" fill="#5899da" stroke="none" />
    <path d="M 279.000006089795 247.506128108664  C 289.814657100316 247.771491685257  298.5 256.621460578651  298.5 267.5  C 298.5 278.545694996616  289.545694996616 287.5  278.5 287.5  C 267.454305003384 287.5  258.5 278.545694996616  258.5 267.5  C 258.5 264.179485180431  259.326702601614 260.913920261391  260.902006985742 257.99680609627  L 278.251495679123 267.933872795305  A 0.5 0.5 0 0 0 279 267.5 L 279.000006085312 247.506128108554  Z " stroke-width="1" stroke="#ffffff" fill="none" />
  </g>
</svg>