<?xml version="1.0" encoding="utf-8"?>
<svg version="1.1" xmlns:xlink="http://www.w3.org/1999/xlink" width="41px" height="41px" xmlns="http://www.w3.org/2000/svg">
  <g transform="matrix(1 0 0 1 -385 -201 )">
    <path d="M 406.000006089795 201.506128108664  C 416.814657100316 201.771491685257  425.5 210.621460578651  425.5 221.5  C 425.5 232.545694996616  416.545694996616 241.5  405.5 241.5  C 394.454305003384 241.5  385.5 232.545694996616  385.5 221.5  C 385.5 212.014437527965  392.157628464871 203.858917417066  401.397523888094 201.925201800412  L 405.008220823583 221.590295302441  A 0.5 0.5 0 0 0 406 221.5 L 406.000006085312 201.506128108554  Z " fill-rule="nonzero" fill="#5899da" stroke="none" />
    <path d="M 406.000006089795 201.506128108664  C 416.814657100316 201.771491685257  425.5 210.621460578651  425.5 221.5  C 425.5 232.545694996616  416.545694996616 241.5  405.5 241.5  C 394.454305003384 241.5  385.5 232.545694996616  385.5 221.5  C 385.5 212.014437527965  392.157628464871 203.858917417066  401.397523888094 201.925201800412  L 405.008220823583 221.590295302441  A 0.5 0.5 0 0 0 406 221.5 L 406.000006085312 201.506128108554  Z " stroke-width="1" stroke="#ffffff" fill="none" />
  </g>
</svg>