<?xml version="1.0" encoding="utf-8"?>
<svg version="1.1" xmlns:xlink="http://www.w3.org/1999/xlink" width="10px" height="10px" xmlns="http://www.w3.org/2000/svg">
  <g transform="matrix(1 0 0 1 -201 -164 )">
    <path d="M 206 165  C 208.24 165  210 166.76  210 169  C 210 171.24  208.24 173  206 173  C 203.76 173  202 171.24  202 169  C 202 166.76  203.76 165  206 165  Z " fill-rule="nonzero" fill="#0094e6" stroke="none" />
    <path d="M 206 165  C 208.24 165  210 166.76  210 169  C 210 171.24  208.24 173  206 173  C 203.76 173  202 171.24  202 169  C 202 166.76  203.76 165  206 165  Z " stroke-width="2" stroke="#ffffff" fill="none" />
  </g>
</svg>