<?xml version="1.0" encoding="utf-8"?>
<svg version="1.1" xmlns:xlink="http://www.w3.org/1999/xlink" width="10px" height="10px" xmlns="http://www.w3.org/2000/svg">
  <g transform="matrix(1 0 0 1 -657 -93 )">
    <path d="M 662 94  C 664.24 94  666 95.76  666 98  C 666 100.24  664.24 102  662 102  C 659.76 102  658 100.24  658 98  C 658 95.76  659.76 94  662 94  Z " fill-rule="nonzero" fill="#ff9900" stroke="none" />
    <path d="M 662 94  C 664.24 94  666 95.76  666 98  C 666 100.24  664.24 102  662 102  C 659.76 102  658 100.24  658 98  C 658 95.76  659.76 94  662 94  Z " stroke-width="2" stroke="#ffffff" fill="none" />
  </g>
</svg>