<?xml version="1.0" encoding="utf-8"?>
<svg version="1.1" xmlns:xlink="http://www.w3.org/1999/xlink" width="23px" height="32px" xmlns="http://www.w3.org/2000/svg">
  <defs>
    <mask fill="white" id="clip48">
      <path d="M 0 12.5  C 0 6.06  5.05999999999995 0  11.5 0  C 17.9400000000001 0  23 6.06  23 12.5  C 23 18.94  13.8 31.6  11.5 31.6  C 9.20000000000005 31.6  0 18.94  0 12.5  Z " fill-rule="evenodd" />
    </mask>
  </defs>
  <g transform="matrix(1 0 0 1 -665 -65 )">
    <path d="M 0 12.5  C 0 6.06  5.05999999999995 0  11.5 0  C 17.9400000000001 0  23 6.06  23 12.5  C 23 18.94  13.8 31.6  11.5 31.6  C 9.20000000000005 31.6  0 18.94  0 12.5  Z " fill-rule="nonzero" fill="#e78c07" stroke="none" transform="matrix(1 0 0 1 665 65 )" />
    <path d="M 0 12.5  C 0 6.06  5.05999999999995 0  11.5 0  C 17.9400000000001 0  23 6.06  23 12.5  C 23 18.94  13.8 31.6  11.5 31.6  C 9.20000000000005 31.6  0 18.94  0 12.5  Z " stroke-width="4" stroke="#ffffff" fill="none" transform="matrix(1 0 0 1 665 65 )" mask="url(#clip48)" />
  </g>
</svg>