<?xml version="1.0" encoding="utf-8"?>
<svg version="1.1" xmlns:xlink="http://www.w3.org/1999/xlink" width="56px" height="56px" xmlns="http://www.w3.org/2000/svg">
  <g transform="matrix(1 0 0 1 -715 -6 )">
    <path d="M 743 10  C 756.44 10  767 20.56  767 34  C 767 47.44  756.44 58  743 58  C 729.56 58  719 47.44  719 34  C 719 20.56  729.56 10  743 10  Z " fill-rule="nonzero" fill="#ffffff" stroke="none" />
    <path d="M 743 8.5  C 757.28 8.5  768.5 19.72  768.5 34  C 768.5 48.28  757.28 59.5  743 59.5  C 728.72 59.5  717.5 48.28  717.5 34  C 717.5 19.72  728.72 8.5  743 8.5  Z " stroke-width="5" stroke="#ff9900" fill="none" />
  </g>
</svg>